PathFileType	4	(X/Y/Z)	C:\Users\86182\Documents\cortex\Trimmed_M3_L13.trc
DataRate	CameraRate	NumFrames	NumMarkers	Units	OrigDataRate	OrigDataStartFrame	OrigNumFrames
100.00	100.00	       70	2	mm	100.00	541	       901
Frame#	Time	gripper			box			
		X1	Y1	Z1	X2	Y2	Z2	

541	5.400	273.45044	149.79950	292.87051	274.98367	148.05502	157.26297	
542	5.410	273.43912	149.80432	292.87082	275.00586	148.08514	157.27180	
543	5.420	273.45078	149.80167	292.86707	274.98105	148.08861	157.25793	
544	5.430	273.44662	149.80571	292.86374	274.94620	148.09413	157.25853	
545	5.440	273.46628	149.80424	292.85294	274.99246	148.10880	157.25040	
546	5.450	273.45953	149.79562	292.87030	274.92236	148.07889	157.25513	
547	5.460	273.45627	149.80084	292.86462	274.95609	148.04193	157.25224	
548	5.470	273.47156	149.79514	292.86307	274.98743	148.09062	157.27513	
549	5.480	273.48160	149.79239	292.86050	275.03244	148.09380	157.27214	
550	5.490	273.46277	149.79579	292.86792	274.99265	148.07458	157.29034	
551	5.500	273.45953	149.79562	292.87030	275.05313	148.09509	157.28712	
552	5.510	273.44589	149.80144	292.87064	274.94290	148.06221	157.28149	
553	5.520	273.46182	149.79466	292.87024	275.01340	148.07877	157.29721	
554	5.530	273.46118	149.79570	292.86911	275.01535	148.07433	157.30807	
555	5.540	273.47406	149.79636	292.85959	275.04193	148.08157	157.26950	
556	5.550	273.43884	149.80748	292.86624	275.13409	148.11284	157.28867	
557	5.560	273.46542	149.80637	292.85031	275.13477	148.11421	157.28996	
558	5.570	273.48032	149.80345	292.84479	275.07825	148.12425	157.22415	
559	5.580	273.46484	149.81071	292.84418	275.08304	148.12367	157.22401	
560	5.590	273.46240	149.81274	292.84277	275.03705	148.08264	157.24049	
561	5.600	273.48508	149.80939	292.83276	275.00259	148.03702	157.23210	
562	5.610	273.45880	149.81253	292.84549	275.01730	148.08589	157.22313	
563	5.620	273.46820	149.80963	292.84360	275.02267	148.07779	157.27792	
564	5.630	273.43912	149.80432	292.87082	275.08188	148.06863	157.26244	
565	5.640	273.43912	149.80432	292.87082	275.03772	148.04587	157.27722	
566	5.650	273.46411	149.79369	292.87018	275.07739	148.10068	157.28056	
567	5.660	273.46866	149.79173	292.87006	275.05078	148.07520	157.32060	
568	5.670	273.47028	149.79182	292.86887	275.16901	148.10394	157.29311	
569	5.680	273.45728	149.79660	292.87036	275.12720	148.09116	157.28587	
570	5.690	273.44366	149.80238	292.87070	275.11111	148.09309	157.29781	
571	5.700	273.50131	149.79807	292.83896	275.15067	148.09259	157.24387	
572	5.710	273.50842	149.79326	292.84143	275.12415	148.07118	157.23972	
573	5.720	273.48392	149.80702	292.83707	275.10223	148.08328	157.23167	
574	5.730	273.46176	149.81215	292.84409	275.07849	148.06458	157.21808	
575	5.740	273.46179	149.80696	292.85184	274.98337	148.05391	157.23083	
576	5.750	273.45566	149.80717	292.85559	275.05502	148.06544	157.25566	
577	5.760	273.44272	149.80659	292.86502	275.08328	148.07153	157.25998	
578	5.770	273.46182	149.79466	292.87024	275.04324	148.06413	157.28307	
579	5.780	273.44400	149.80453	292.86725	274.94794	148.06328	157.27927	
580	5.790	273.41202	149.81438	292.87372	274.98300	148.06876	157.29716	
581	5.800	273.42194	149.80942	292.87457	274.98407	148.05556	157.28970	
582	5.810	273.43912	149.80432	292.87082	274.97269	148.02267	157.27319	
583	5.820	273.44571	149.80003	292.87286	274.94366	148.04930	157.27475	
584	5.830	273.43375	149.81041	292.86523	274.90662	148.01996	157.26384	
585	5.840	273.46173	149.80534	292.85428	275.01694	148.06761	157.23726	
586	5.850	273.44818	149.80046	292.87057	275.03778	148.06390	157.23615	
587	5.860	273.47028	149.79182	292.86887	275.04675	148.07384	157.24275	
588	5.870	273.49051	149.79132	292.85623	275.10455	148.08549	157.23813	
589	5.880	273.47195	149.79190	292.86768	275.12262	148.08899	157.25807	
590	5.890	273.48093	149.79427	292.85815	275.12399	148.09450	157.25266	
591	5.900	273.48642	149.80177	292.84329	275.14285	148.08705	157.24513	
592	5.910	273.46860	149.79715	292.86200	275.05051	148.06114	157.26311	
593	5.920	273.47314	149.79523	292.86188	275.01489	148.06068	157.28049	
594	5.930	273.45432	149.79861	292.86929	274.94122	148.02220	157.25905	
595	5.940	273.48322	149.79248	292.85931	274.98056	148.03218	157.24191	
596	5.950	273.45377	149.79735	292.87155	274.96375	148.06129	157.26425	
597	5.960	273.43686	149.80527	292.87088	274.86560	148.02094	157.27190	
598	5.970	273.43686	149.80527	292.87088	274.95975	148.03200	157.29553	
599	5.980	273.42786	149.80910	292.87109	274.89798	148.01842	157.28926	
600	5.990	273.44138	149.80336	292.87076	274.97214	148.05240	157.29787	
601	6.000	273.45404	149.80180	292.86469	275.03976	148.08658	157.28891	
602	6.010	273.43460	149.80623	292.87094	275.00500	148.06990	157.28816	
603	6.020	273.45239	149.80173	292.86588	275.05725	148.08446	157.28220	
604	6.030	273.43884	149.80748	292.86624	275.02457	148.07175	157.29648	
605	6.040	273.51340	149.79765	292.83157	275.08582	148.06125	157.25389	
606	6.050	273.51865	149.79378	292.83389	275.05615	148.08232	157.22884	
607	6.060	273.47064	149.80760	292.84500	275.01715	148.05856	157.21245	
608	6.070	273.46826	149.80116	292.85623	275.02994	148.06053	157.24139	
609	6.080	273.48413	149.79361	292.85703	275.03360	148.05832	157.25223	
610	6.090	273.45602	149.80565	292.85764	275.03641	148.07561	157.25114	
